# xmcd
#
# Track frame offsets:
#	150
#	22825
#	49042
#	77016
#	99618
#	115388
#	134662
#	150122
#	173329
#	184266
#	200287
#	213289
#	229726
#	241948
#	260265
#	271132
#	282944
#	294661
#	305203
#	316243
#
# Disc length: 4353
#
# Revision: 4
# Processed by: cddbd v1.5.1PL0 Copyright (c) Steve Scherf et al.
# Submitted via: Kscd 1.3.0
# Normalized: r2:TDELIM( - ),TSWAP
#
DISCID=0f10ff14
DTITLE=B.B. KING - JOHN LEE HOOKER - The King Of The Blues - Boogie Chillun
DYEAR=1900
DGENRE=
TTITLE0=B.B. KING - The Thrill Is Gone
TTITLE1=B.B. KING - Guess Who
TTITLE2=B.B. KING - Payin' The Cost To Be The Boss
TTITLE3=B.B. KING - Everyday I Have The Blues
TTITLE4=B.B. KING - The Letter
TTITLE5=B.B. KING - Sweet Sixteen
TTITLE6=B.B. KING - How Blue You Can Get
TTITLE7=B.B. KING - You've Done Lost You're Good Thing Now
TTITLE8=B.B. KING - Catfish Blues
TTITLE9=B.B. KING - It's My Own Fault Baby
TTITLE10=JOHN LEE HOOKER - Drive Me Away
TTITLE11=JOHN LEE HOOKER - Mama You've Got A Daughter
TTITLE12=JOHN LEE HOOKER - Everybody Rockin'
TTITLE13=JOHN LEE HOOKER - House Rent Boogie
TTITLE14=JOHN LEE HOOKER - Little Fine Woman
TTITLE15=JOHN LEE HOOKER - Your Baby Ain't Sweet Like Mine
TTITLE16=JOHN LEE HOOKER - I Love You Honey
TTITLE17=JOHN LEE HOOKER - Maudie
TTITLE18=JOHN LEE HOOKER - Bottle Up And Go
TTITLE19=JOHN LEE HOOKER - Big Legs, Tight Skirt
EXTD=
EXTT0=
EXTT1=
EXTT2=
EXTT3=
EXTT4=
EXTT5=
EXTT6=
EXTT7=
EXTT8=
EXTT9=
EXTT10=
EXTT11=
EXTT12=
EXTT13=
EXTT14=
EXTT15=
EXTT16=
EXTT17=
EXTT18=
EXTT19=
PLAYORDER=
